<svg width="115" height="56" viewBox="0 0 115 56" fill="none" xmlns="http://www.w3.org/2000/svg">
<g clip-path="url(#clip0_1880_915)">
<path d="M14.205 43.1576H0V24.1143H4.35524V39.5162H14.205V43.1576Z" fill="white"/>
<path d="M28.7699 36.9215H18.3934C18.6424 39.7357 19.8641 40.5644 21.4999 40.5644C23.0263 40.5644 24.0528 39.7273 24.3018 38.3563H28.6033C27.7988 41.7514 25.0238 43.5461 21.4175 43.5461C17.2844 43.5461 14.0381 41.0349 14.0381 35.8451C14.0381 31.4287 17.0067 28.062 21.6951 28.062C26.4071 28.062 28.8523 31.6212 28.8523 35.5404C28.8486 36.0019 28.821 36.4629 28.7699 36.9215ZM18.5045 34.1893H24.3305C24.0814 32.1184 23.1104 31.042 21.4999 31.042C19.9466 31.042 18.8646 32.0079 18.5045 34.1893Z" fill="white"/>
<path d="M38.8122 43.1577H34.0413L28.2422 28.4487H33.0703L36.4815 39.8211L39.8674 28.4504H44.5794L38.8122 43.1577Z" fill="white"/>
<path d="M57.9229 36.9215H47.5514C47.8022 39.7357 49.0223 40.5644 50.6597 40.5644C52.1844 40.5644 53.2109 39.7273 53.4616 38.3563H57.7547C56.9502 41.7514 54.1752 43.5461 50.5688 43.5461C46.4357 43.5461 43.1895 41.0349 43.1895 35.8451C43.1895 31.4287 46.158 28.062 50.8465 28.062C55.5585 28.062 58.0037 31.6212 58.0037 35.5404C58.0005 36.0018 57.9735 36.4628 57.9229 36.9215ZM47.6574 34.1893H53.4836C53.2345 32.1184 52.2634 31.042 50.6546 31.042C49.1047 31.042 48.0226 32.0079 47.6574 34.1893Z" fill="white"/>
<path d="M63.281 38.1349C63.281 38.7694 63.281 39.1009 63.3096 39.4877C63.3921 40.1573 63.6984 40.3699 65.0026 40.3146V43.2678C64.1361 43.3596 63.2655 43.406 62.3941 43.4067C60.3125 43.4067 59.0924 42.6066 58.9813 40.6746C58.9258 39.9564 58.9258 39.2382 58.9258 38.217V22.8735H63.281V38.1349Z" fill="white"/>
<path d="M91.6325 35.6894C91.6325 36.9216 91.6325 37.69 91.516 39.0762C91.2062 43.5394 88.0729 47.4268 80.2598 47.4268C72.4459 47.4268 69.3124 43.5394 68.9641 39.0762C68.8867 37.69 68.8867 36.9216 68.8867 35.6894V20.3359H74.9198V36.5751C74.9198 37.3066 74.9197 37.8056 74.9584 38.3446C75.1906 41.2308 76.9309 42.9635 80.2575 42.9635C83.5848 42.9635 85.3251 41.2308 85.5183 38.3446C85.5873 37.7574 85.6134 37.166 85.5958 36.5751V20.3359H91.6302L91.6325 35.6894Z" fill="white"/>
<path d="M115 36.9434C115 44.2828 110.505 48.1048 105.239 48.1048C103.556 48.1048 101.512 47.6846 100.475 47.035L99.1289 44.8939V55.0558H93.0938V27.1965H99.1267V30.2552L100.667 27.9985C101.82 27.1195 103.864 26.6592 105.931 26.6592C111.58 26.6609 115 30.9483 115 36.9434ZM108.813 37.3251C108.813 33.3071 106.855 30.796 104.01 30.796C101.246 30.796 99.1305 32.4784 99.1305 37.1409V38.0583C99.1305 42.4546 101.512 43.9831 103.817 43.9831C106.739 43.9764 108.813 41.7598 108.813 37.3251Z" fill="white"/>
<path d="M62.0684 53.0836C62.0684 53.2509 62.0684 53.3715 62.0684 53.4837C62.0835 53.7231 62.1895 53.7867 62.5076 53.7516V54.0747C62.3928 54.0913 62.2769 54.098 62.1609 54.0948C61.8715 54.0948 61.6561 53.996 61.6309 53.5926C61.6309 53.467 61.6309 53.318 61.6309 53.0903V48.8999H62.0684V53.0836Z" fill="white"/>
<path d="M66.9172 52.3367H64.0832C64.1321 53.4349 64.6908 53.8216 65.2983 53.8216C65.5665 53.8265 65.8275 53.7354 66.0339 53.5648C66.2402 53.3943 66.3781 53.1557 66.4225 52.8925H66.8819C66.7136 53.758 66.0202 54.1648 65.2713 54.1648C64.3374 54.1648 63.6104 53.5186 63.6104 52.2111C63.6104 51.0158 64.3592 50.249 65.3403 50.249C66.3871 50.249 66.9307 51.0861 66.9307 52.1056C66.9312 52.1829 66.9268 52.26 66.9172 52.3367ZM64.0832 52.0018H66.4864C66.4359 51.0459 65.9563 50.609 65.3269 50.609C64.6975 50.609 64.1489 51.0643 64.0832 51.9935V52.0018Z" fill="white"/>
<path d="M70.6062 53.3917L70.4227 53.7868C70.2835 53.9151 70.1199 54.0147 69.9417 54.0797C69.7634 54.1446 69.574 54.1736 69.3844 54.1651C68.691 54.1651 68.1963 53.8069 68.1963 53.1322C68.1963 52.2817 69.0091 51.8666 70.3588 51.8666H70.5994V51.7326C70.5994 51.5652 70.5994 51.4246 70.5859 51.2756C70.5506 50.847 70.2881 50.6059 69.7445 50.6059C69.6257 50.596 69.5062 50.6106 69.3934 50.6487C69.2805 50.6868 69.1768 50.7477 69.0886 50.8275C69.0005 50.9074 68.9299 51.0044 68.8812 51.1126C68.8324 51.2208 68.8066 51.3378 68.8055 51.4564H68.3561C68.4049 50.7265 68.9636 50.2544 69.7546 50.2544C70.5809 50.2544 70.9696 50.6277 71.0268 51.2388C71.0403 51.4061 71.0403 51.5551 71.0403 51.731V53.0318C71.0432 53.3793 71.0668 53.7265 71.111 54.0714H70.6735L70.6062 53.3917ZM70.6062 52.6333V52.2097C69.5527 52.1394 68.6843 52.3772 68.6843 53.102C68.6843 53.5725 68.9805 53.827 69.5257 53.827C70.1685 53.8219 70.5994 53.3297 70.5994 52.6333H70.6062Z" fill="white"/>
<path d="M74.3585 50.2911V50.6359C73.7089 50.5874 73.2277 50.9875 73.2277 51.9753V54.0629H72.79V50.348H73.236V51.0177L73.5053 50.5405C73.5881 50.4532 73.6876 50.3833 73.798 50.335C73.9085 50.2867 74.0275 50.2609 74.1481 50.2593C74.2194 50.2599 74.2903 50.2706 74.3585 50.2911Z" fill="white"/>
<path d="M78.6567 51.9868V54.0661H78.2174V52.042C78.2174 51.8311 78.2174 51.6687 78.2043 51.4795C78.1537 50.9773 77.8678 50.614 77.2429 50.614C76.6188 50.614 76.0769 51.0643 76.0769 52.2245V54.0661H75.6377V50.3478H76.0769V51.0643L76.2738 50.6642C76.4098 50.5247 76.574 50.4155 76.7553 50.3439C76.937 50.2724 77.1318 50.24 77.3273 50.249C78.1185 50.249 78.5708 50.6776 78.6413 51.3607C78.6567 51.5499 78.6567 51.6838 78.6567 51.9868Z" fill="white"/>
<path d="M80.8832 49.5462C80.884 49.5852 80.8763 49.624 80.8618 49.6601C80.8464 49.6962 80.825 49.7292 80.7974 49.7567C80.769 49.7843 80.736 49.8062 80.7 49.8209C80.6632 49.8356 80.6249 49.843 80.585 49.8425C80.5068 49.8416 80.4317 49.8101 80.3765 49.7547C80.3205 49.6992 80.2898 49.6244 80.2891 49.5462C80.2891 49.5075 80.2967 49.469 80.3113 49.4332C80.3259 49.3973 80.3481 49.3648 80.3757 49.3374C80.4033 49.3099 80.4355 49.2883 80.4715 49.2736C80.5076 49.2588 80.5467 49.2513 80.585 49.2515C80.6249 49.2506 80.6632 49.2576 80.7 49.2721C80.7368 49.2865 80.7698 49.3082 80.7974 49.3357C80.825 49.3632 80.8472 49.3961 80.8618 49.4323C80.8763 49.4684 80.884 49.5072 80.8832 49.5462ZM80.3665 54.0664V50.3482H80.8089V54.0664H80.3665Z" fill="white"/>
<path d="M85.5752 51.9868V54.0661H85.1375V52.042C85.1375 51.8311 85.1375 51.6687 85.1221 51.4795C85.0738 50.9772 84.7856 50.6139 84.1615 50.6139C83.5374 50.6139 82.9954 51.0643 82.9954 52.2245V54.0661H82.5576V50.3478H82.9969V51.0643L83.1955 50.6642C83.3312 50.5247 83.4953 50.4156 83.6762 50.344C83.8579 50.2724 84.0526 50.24 84.2474 50.249C85.0401 50.249 85.4924 50.6776 85.5629 51.3607C85.5752 51.5498 85.5752 51.6838 85.5752 51.9868Z" fill="white"/>
<path d="M90.4014 53.1251C90.4014 53.49 90.4014 53.778 90.4014 53.9956C90.3662 54.9883 89.7436 55.571 88.7186 55.571C87.7932 55.571 87.2274 55.1909 87.1369 54.3823V54.2986H87.5739L87.5878 54.3823C87.6514 54.9314 88.0922 55.2194 88.7255 55.2194C89.5182 55.2194 89.9422 54.749 89.9705 54.0107C89.9705 53.8064 89.9705 53.6591 89.9705 53.4632V53.3812L89.7229 53.7897C89.5803 53.9198 89.4132 54.0203 89.2315 54.0853C89.049 54.1502 88.8558 54.1784 88.6626 54.168C87.6161 54.168 86.9951 53.3594 86.9951 52.2562C86.9951 50.9068 87.8369 50.2472 88.7761 50.2472C89.1272 50.2332 89.4707 50.353 89.7367 50.582L89.9705 50.9822V50.3359H90.4014V53.1251ZM89.9637 52.288V52.0067C89.9637 50.952 89.3212 50.5938 88.7692 50.5938C88.0202 50.5938 87.4681 51.1847 87.4681 52.1892C87.4681 53.0832 87.9006 53.8148 88.7201 53.8148C89.3764 53.8215 89.9567 53.4197 89.9567 52.2946L89.9637 52.288Z" fill="white"/>
<path d="M71.9524 12.1978C71.2961 12.1978 70.6545 12.3914 70.1087 12.7541C69.563 13.1169 69.1376 13.6325 68.8865 14.2358C68.6352 14.839 68.5695 15.5028 68.6975 16.1432C68.8257 16.7836 69.1417 17.3719 69.6058 17.8336C70.0699 18.2953 70.6612 18.6098 71.305 18.7371C71.9488 18.8645 72.616 18.7992 73.2224 18.5492C73.8288 18.2994 74.3471 17.8762 74.7117 17.3333C75.0764 16.7904 75.271 16.1521 75.271 15.4991C75.271 15.0656 75.1852 14.6363 75.0184 14.2358C74.8517 13.8353 74.6072 13.4713 74.299 13.1647C73.9908 12.8582 73.625 12.615 73.2224 12.4491C72.8198 12.2832 72.3882 12.1978 71.9524 12.1978ZM71.9524 17.4462C71.565 17.4462 71.1864 17.3318 70.8644 17.1176C70.5424 16.9034 70.2915 16.5989 70.1436 16.2427C69.9957 15.8865 69.9573 15.4947 70.0334 15.1169C70.1094 14.739 70.2965 14.3921 70.5709 14.12C70.8453 13.848 71.1947 13.6631 71.5748 13.5888C71.9548 13.5144 72.3486 13.5539 72.7061 13.7023C73.0636 13.8507 73.3688 14.1013 73.583 14.4223C73.7973 14.7434 73.9109 15.1205 73.9096 15.5059C73.9096 16.0222 73.7033 16.5175 73.3363 16.8826C72.9693 17.2477 72.4715 17.4529 71.9524 17.4529V17.4462Z" fill="white"/>
<path d="M85.6363 1.81836C84.9801 1.81836 84.3384 2.01198 83.7925 2.37474C83.2466 2.7375 82.8211 3.25311 82.5704 3.85636C82.319 4.45961 82.253 5.12341 82.3811 5.76381C82.5091 6.40422 82.8257 6.99248 83.2896 7.45418C83.7534 7.91587 84.3453 8.23031 84.9885 8.35773C85.6325 8.48507 86.2995 8.41972 86.9059 8.16986C87.5124 7.91994 88.0306 7.49681 88.3956 6.9539C88.7597 6.41099 88.9545 5.7727 88.9545 5.11975C88.9545 4.24416 88.6049 3.40444 87.9831 2.78531C87.3606 2.16618 86.5165 1.81836 85.6363 1.81836ZM85.6363 7.06676C85.2492 7.06676 84.8704 6.95257 84.5484 6.73863C84.2272 6.52469 83.9757 6.2206 83.8278 5.86483C83.6798 5.50907 83.6407 5.11759 83.7166 4.7399C83.7917 4.36222 83.9788 4.01529 84.2525 3.743C84.5262 3.4707 84.8743 3.28527 85.2545 3.21014C85.634 3.13502 86.0273 3.17357 86.3854 3.32094C86.7426 3.4683 87.0485 3.71786 87.2632 4.03805C87.4786 4.35823 87.5936 4.73466 87.5936 5.11975C87.5913 5.63467 87.3836 6.12776 87.0171 6.49109C86.6506 6.85442 86.1538 7.05839 85.6363 7.05839V7.06676Z" fill="white"/>
<path d="M98.4442 10.125C97.7879 10.125 97.1462 10.3186 96.6004 10.6814C96.0553 11.0442 95.6298 11.5598 95.3783 12.163C95.1276 12.7662 95.0617 13.4301 95.1897 14.0705C95.3177 14.7109 95.6336 15.2991 96.0974 15.7608C96.562 16.2226 97.1531 16.5369 97.7971 16.6643C98.4404 16.7917 99.1081 16.7263 99.7146 16.4765C100.321 16.2266 100.839 15.8035 101.203 15.2605C101.568 14.7176 101.763 14.0794 101.763 13.4264C101.763 12.5508 101.413 11.7111 100.791 11.092C100.168 10.4728 99.3243 10.125 98.4442 10.125ZM98.4442 15.3734C98.057 15.3737 97.6783 15.2598 97.3563 15.0461C97.0343 14.8323 96.7836 14.5284 96.6349 14.1726C96.4869 13.8169 96.4478 13.4253 96.5229 13.0476C96.5981 12.6698 96.7844 12.3227 97.0581 12.0502C97.3318 11.7778 97.6806 11.5921 98.0601 11.5169C98.4404 11.4416 98.8337 11.4801 99.1909 11.6274C99.549 11.7747 99.8549 12.0242 100.07 12.3445C100.285 12.6647 100.4 13.0412 100.4 13.4264C100.401 13.6824 100.35 13.9359 100.253 14.1726C100.155 14.4093 100.01 14.6245 99.8288 14.8058C99.6471 14.9871 99.4317 15.131 99.194 15.2293C98.9563 15.3275 98.7018 15.3782 98.4442 15.3784V15.3734Z" fill="white"/>
<path d="M111.656 1.69869e-06C110.999 -0.00066067 110.358 0.192399 109.812 0.554758C109.265 0.917119 108.84 1.43249 108.587 2.03568C108.336 2.63887 108.27 3.30278 108.397 3.94341C108.525 4.58403 108.841 5.1726 109.305 5.63464C109.769 6.09668 110.36 6.41144 111.004 6.5391C111.648 6.66675 112.316 6.60157 112.922 6.3518C113.528 6.10202 114.047 5.67888 114.412 5.13589C114.777 4.59291 114.971 3.95448 114.971 3.30138C114.971 2.42638 114.622 1.58717 114.001 0.968133C113.379 0.349101 112.536 0.000889127 111.656 1.69869e-06ZM111.656 5.24673C111.269 5.24706 110.89 5.13311 110.568 4.9193C110.246 4.70549 109.995 4.40142 109.846 4.04558C109.698 3.68974 109.659 3.29812 109.735 2.92028C109.81 2.54245 109.996 2.19536 110.27 1.92296C110.545 1.65057 110.893 1.46511 111.273 1.39003C111.652 1.31496 112.046 1.35366 112.404 1.50123C112.762 1.6488 113.068 1.89861 113.282 2.21906C113.497 2.5395 113.612 2.91616 113.611 3.30138C113.611 3.81732 113.406 4.31213 113.039 4.67695C112.672 5.04177 112.175 5.24673 111.656 5.24673Z" fill="white"/>
<path d="M82.5152 5.49316L73.6094 13.572L74.4315 14.4688L83.3378 6.39003L82.5152 5.49316Z" fill="white"/>
<path d="M109.615 4.60693L100.709 12.6857L101.532 13.5826L110.437 5.5038L109.615 4.60693Z" fill="white"/>
<path d="M88.4832 5.0835L87.6904 6.00671L95.8255 12.9134L96.6175 11.9903L88.4832 5.0835Z" fill="white"/>
</g>
<defs>
<clipPath id="clip0_1880_915">
<rect width="115" height="56" fill="white"/>
</clipPath>
</defs>
</svg>
